<svg width="1703" height="965" viewBox="0 0 1703 965" fill="none" xmlns="http://www.w3.org/2000/svg">
<path d="M248.425 0.896612C220.292 10.0966 188.559 50.8966 181.359 87.1633C180.292 92.2299 179.359 95.2966 179.359 93.83C179.092 88.7633 169.759 63.1633 164.959 54.7633C157.225 40.8966 145.759 27.4299 136.425 21.1633C128.559 15.8299 127.359 15.4299 120.825 15.9633C114.825 16.4966 112.959 17.4299 108.692 21.5633C105.759 24.3633 101.625 30.7633 99.2252 35.8299C94.8252 45.2966 87.2252 73.2966 87.2252 79.6966C87.2252 81.8299 86.6919 83.9633 85.8919 84.3633C85.2252 84.7633 84.5586 83.9633 84.5586 82.6299C84.5586 78.4966 75.4919 53.1633 70.8252 44.4966C62.6919 29.1633 49.8919 19.9633 40.8253 23.1633C33.8919 25.5633 27.6252 41.4299 23.2252 67.6966C21.7586 76.0966 20.5586 83.2966 20.5586 83.6966C20.5586 84.0966 15.7586 74.7633 9.89191 63.0299C4.02525 51.2966 -0.374754 42.8966 0.0252465 44.3633C0.55858 45.8299 4.95858 58.7633 9.89191 73.0299L18.8252 99.03L17.7586 120.363C15.7586 156.23 19.3586 192.763 25.8919 203.43C29.2252 208.897 34.2919 210.23 38.9586 206.763C50.9586 197.83 51.7586 175.43 41.4919 140.097C38.6919 130.363 38.5586 128.897 40.1586 117.03C43.4919 90.7633 48.9586 59.5633 50.0253 61.2966C52.5586 65.8299 60.5586 92.3633 63.0919 104.363C64.5586 111.697 67.0919 127.297 68.5586 139.03C71.4919 161.43 76.5586 186.497 79.4919 192.63C80.4252 194.763 83.4919 197.43 86.2919 198.897C91.3586 201.297 91.4919 201.297 94.9586 198.763C100.692 194.497 101.759 189.163 101.892 163.03C102.025 97.2966 107.492 52.2299 116.959 38.2299C121.092 32.0966 127.759 31.2966 133.759 36.4966C148.159 48.4966 168.159 92.3633 172.692 121.563C174.159 130.63 173.625 169.83 171.892 179.03C171.492 181.163 172.692 179.43 174.425 174.897C178.692 164.363 181.625 149.963 182.692 134.097L183.625 121.163L187.492 129.297C196.025 147.297 219.492 163.43 244.425 168.497C259.359 171.43 286.025 170.497 301.225 166.497C315.625 162.63 337.625 151.697 346.159 144.097C360.425 131.563 382.425 109.963 378.559 112.363C340.959 135.963 322.692 145.297 302.825 150.63C293.759 153.03 288.425 153.563 271.225 153.563C253.092 153.563 249.492 153.297 241.892 150.63C223.359 144.097 212.159 132.897 207.892 116.363C202.825 96.63 208.559 70.3633 222.559 49.0299C235.625 29.0299 250.159 19.5633 264.292 21.6966C278.959 23.8299 296.025 53.1633 292.425 70.0966C291.225 76.3633 284.559 82.6299 276.159 85.8299C270.559 87.8299 265.759 88.3633 250.292 88.3633C229.092 88.3633 228.959 88.6299 247.759 95.43C255.359 98.23 259.625 98.8966 269.892 99.03C281.359 99.03 283.092 98.63 288.825 95.2966C299.625 89.0299 304.692 77.6966 304.825 60.3633C304.825 36.6299 292.159 12.8966 274.692 4.09661C267.492 0.363279 254.692 -1.10339 248.425 0.896612Z" fill="black"/>
<path d="M403.492 173.163C348.959 178.363 301.092 210.763 280.559 256.23C259.225 303.163 270.559 367.83 312.025 436.097C319.359 448.23 338.292 475.297 346.825 485.83C349.225 488.897 351.225 491.563 351.225 491.963C351.225 492.363 349.359 493.03 347.092 493.563C344.825 493.963 334.559 497.963 324.292 502.497C258.692 531.03 210.825 537.03 178.559 520.763C150.692 506.763 135.492 478.363 131.092 431.697C126.692 384.363 140.159 307.163 164.559 241.297C167.359 233.43 169.625 226.897 169.359 226.63C168.692 226.097 156.559 245.297 150.159 257.03C134.559 285.563 120.825 327.163 113.759 367.03C110.159 387.43 108.825 431.03 111.225 449.963C116.692 493.297 135.225 526.097 162.692 540.63C189.225 554.763 226.159 554.497 268.825 539.83C288.292 533.163 289.225 532.763 324.959 514.897C341.625 506.497 356.025 499.697 356.959 499.697C357.759 499.83 360.425 502.097 362.559 504.897C364.825 507.697 369.492 513.43 372.959 517.43L379.359 524.897L374.692 539.43C372.159 547.43 369.359 558.097 368.559 563.163C367.092 572.23 367.759 584.363 369.892 585.697C370.425 585.963 372.559 582.23 374.559 577.297C378.692 567.297 388.959 546.763 391.625 543.163C393.225 541.03 396.559 543.963 426.692 573.963C444.959 592.23 471.892 618.363 486.559 631.83C514.425 657.43 569.225 706.497 570.292 706.763C571.492 707.163 658.559 628.097 689.225 598.763C765.625 525.697 815.092 465.163 842.425 411.697C865.892 365.963 875.625 319.43 869.092 285.03C855.625 213.83 784.825 165.83 703.625 172.897C648.425 177.697 612.025 202.763 578.292 259.163C574.292 266.097 570.692 271.697 570.559 271.697C570.292 271.697 566.959 266.497 563.092 260.097C528.559 202.763 493.625 178.23 439.092 173.163C422.425 171.563 419.759 171.563 403.492 173.163ZM743.225 251.03C751.225 255.163 757.359 266.23 755.892 273.963C755.492 276.363 753.225 280.497 751.092 283.03L746.959 287.697L750.159 288.897C798.292 307.297 801.892 308.897 801.892 312.63C801.892 313.83 798.025 324.763 793.359 336.897C788.559 349.03 784.159 360.63 783.359 362.63C782.159 365.963 781.625 366.097 778.025 364.897C774.825 363.83 773.625 362.23 772.559 358.363C771.759 355.43 769.359 351.697 767.092 349.83C753.892 338.763 734.159 355.697 733.892 378.097C733.759 394.63 745.359 403.163 757.759 395.563C762.425 392.763 769.892 393.03 769.892 396.097C769.892 398.097 749.759 449.297 748.159 451.297C747.492 452.23 745.625 453.03 744.025 452.897C740.292 452.897 685.625 431.297 685.359 429.83C685.359 429.297 688.425 427.563 692.292 426.097C697.225 424.23 699.892 422.363 701.225 419.697C703.892 414.363 703.759 412.097 700.025 405.697C694.959 397.163 684.292 391.03 672.025 389.563C654.425 387.43 644.559 399.03 652.959 411.697C654.692 414.23 655.892 417.03 655.625 417.83C655.092 419.43 608.025 401.83 604.025 398.497C602.825 397.563 601.892 395.43 602.025 393.83C602.025 392.363 606.425 379.963 611.759 366.363C617.759 351.163 621.092 341.163 620.292 340.363C619.492 339.563 617.225 340.097 613.892 342.097C606.559 346.23 599.359 345.963 594.959 341.297C592.959 339.297 590.692 335.963 590.025 333.963C583.892 317.697 598.692 293.03 614.692 293.03C619.092 293.03 626.959 300.63 628.025 306.097C628.692 309.43 632.159 312.897 633.225 311.43C633.359 311.163 637.759 299.563 643.092 285.697C653.892 257.563 655.492 254.363 658.959 254.363C660.292 254.363 672.159 258.497 685.359 263.697C698.425 268.763 709.759 273.03 710.425 273.03C710.959 273.03 711.092 272.097 710.692 270.897C709.225 267.163 711.225 260.23 714.959 255.83C721.359 248.23 733.759 246.23 743.225 251.03Z" fill="black"/>
<path d="M1040.83 477.03C1007.09 486.097 989.892 510.497 989.892 549.297C989.892 557.163 990.292 563.697 990.959 563.697C991.492 563.697 992.959 559.963 994.292 555.297C1006.43 513.297 1037.49 492.097 1080.16 497.03C1109.76 500.363 1137.76 512.763 1161.89 533.43C1173.63 543.297 1173.49 543.297 1168.96 530.097C1161.63 509.03 1135.09 488.497 1102.56 478.897C1085.76 473.963 1055.49 473.03 1040.83 477.03Z" fill="black"/>
<path d="M956.159 481.697C958.292 490.097 957.092 535.697 954.159 558.63C950.292 587.697 950.292 596.897 954.025 601.563C965.492 616.23 985.092 610.097 1038.16 575.43C1053.09 565.697 1069.36 555.563 1074.43 552.897L1083.63 547.963L1078.56 546.363C1066.96 542.497 1052.56 547.163 1017.89 565.697C995.759 577.563 981.225 583.697 975.225 583.697C972.959 583.697 972.559 582.897 972.559 577.297C972.559 573.83 973.492 565.297 974.559 558.363C977.092 541.963 977.092 523.697 974.559 513.697C972.025 503.963 964.425 488.23 959.092 482.23L955.225 477.697L956.159 481.697Z" fill="black"/>
<path d="M1515.76 480.23C1507.63 485.963 1504.96 521.297 1510.96 543.697C1512.69 549.963 1516.29 559.83 1519.09 565.697L1524.03 576.363L1522.29 585.563C1520.16 597.163 1515.23 607.43 1508.96 613.563C1501.23 621.03 1496.03 623.03 1484.56 622.897C1476.16 622.897 1473.23 622.23 1465.89 618.63C1449.09 610.497 1436.16 597.03 1427.63 578.763C1421.36 565.297 1420.96 560.23 1424.96 544.363C1433.76 509.83 1434.96 490.363 1428.29 490.363C1426.43 490.363 1416.69 499.83 1414.03 504.097C1405.09 518.897 1402.29 545.697 1407.36 569.03C1410.69 584.497 1410.83 586.897 1409.49 595.697C1408.69 600.897 1408.83 601.163 1410.03 597.697C1410.83 595.43 1411.76 592.897 1412.03 591.83C1412.43 590.763 1415.09 594.763 1418.03 600.63C1432.96 630.63 1458.96 646.897 1487.89 644.497C1512.29 642.497 1532.16 630.097 1541.49 611.163L1544.96 603.963L1552.69 610.363C1585.09 637.297 1634.43 643.697 1671.89 625.83C1681.36 621.297 1694.69 612.097 1700.43 605.83C1704.43 601.563 1703.36 601.43 1696.83 605.43C1688.69 610.497 1673.89 616.763 1662.56 619.963C1647.23 624.23 1619.09 624.363 1604.16 619.963C1585.63 614.63 1570.69 605.83 1557.76 592.897L1550.16 585.03L1550.83 571.43C1552.56 539.03 1540.43 494.763 1526.56 482.497C1521.23 477.83 1519.63 477.563 1515.76 480.23Z" fill="black"/>
<path d="M1288.29 523.163C1274.69 526.363 1260.43 535.43 1255.09 544.23C1250.69 551.43 1252.29 551.83 1261.23 545.697C1272.29 538.23 1276.43 537.03 1295.89 536.097C1321.63 534.897 1336.83 539.163 1349.76 551.163C1360.69 561.297 1364.96 570.897 1365.63 587.697C1366.56 609.03 1359.09 629.83 1344.96 645.03C1328.29 663.163 1314.83 665.43 1294.83 653.563C1264.96 635.83 1239.76 599.963 1243.89 581.163C1244.96 575.963 1250.16 569.697 1255.76 566.763C1258.03 565.563 1264.96 563.563 1271.23 562.363L1282.56 560.23L1274.56 557.163C1256.29 549.963 1244.56 552.23 1238.56 564.097C1225.09 591.163 1251.09 653.563 1285.49 676.63L1292.43 681.297L1280.03 696.763C1273.23 705.43 1262.43 719.563 1255.89 728.363C1249.49 737.163 1243.76 744.897 1243.23 745.43C1242.69 746.097 1234.96 724.363 1226.03 697.297C1211.63 653.163 1209.89 647.03 1209.89 638.497C1209.89 626.497 1207.89 617.03 1203.23 607.03C1197.23 594.497 1188.56 587.83 1184.03 592.363C1177.49 598.897 1178.43 618.63 1186.69 646.497C1189.36 655.563 1191.49 664.363 1191.49 666.097C1191.09 670.897 1184.69 683.43 1180.96 686.363C1165.09 698.763 1137.76 685.697 1098.43 647.03C1089.36 638.097 1081.89 631.03 1081.89 631.297C1081.89 632.23 1092.29 646.363 1101.63 657.963C1113.23 672.63 1130.83 689.297 1141.09 695.563C1151.49 701.83 1158.69 704.097 1167.89 704.23C1178.03 704.363 1186.43 699.83 1193.63 690.23L1198.56 683.563L1203.49 699.297C1206.29 707.963 1212.43 727.697 1217.23 743.163L1226.03 771.297L1219.76 781.83C1208.83 800.23 1194.43 831.03 1188.83 847.963C1167.49 912.63 1181.23 949.83 1231.49 962.63C1250.56 967.43 1262.43 964.097 1269.49 952.097C1274.83 943.03 1276.56 933.163 1276.56 911.963C1276.56 880.363 1269.09 839.697 1252.43 782.097C1249.63 772.097 1247.23 763.03 1247.23 761.83C1247.23 759.83 1251.63 752.63 1277.63 711.697C1298.16 679.43 1295.63 682.363 1301.49 684.497C1304.29 685.43 1310.03 686.23 1314.29 686.363C1334.43 686.497 1351.49 675.563 1370.16 651.03C1383.89 633.163 1389.89 616.897 1389.89 598.363C1389.89 577.563 1384.03 564.363 1367.23 547.697C1358.69 539.03 1353.36 535.03 1345.89 531.297C1326.83 521.83 1305.76 518.897 1288.29 523.163ZM1239.09 818.363C1250.83 863.563 1255.36 889.563 1255.63 912.363C1255.63 924.497 1255.23 928.097 1252.96 933.297C1248.16 943.83 1241.49 944.763 1225.63 937.163C1214.29 931.83 1206.69 924.23 1201.49 913.297C1197.49 904.763 1197.23 903.563 1197.23 888.363C1197.36 863.83 1202.43 846.63 1220.83 808.63C1226.69 796.763 1230.83 789.697 1231.36 790.63C1231.89 791.563 1235.36 804.097 1239.09 818.363Z" fill="black"/>
<path d="M856.159 565.03C841.759 567.697 833.492 583.83 840.559 595.297C842.025 597.697 842.692 599.697 842.159 599.697C835.759 599.697 789.092 606.63 787.759 607.83C785.225 609.963 785.359 613.697 789.225 643.697C791.092 657.963 792.559 669.83 792.559 669.963C792.559 671.563 787.092 669.83 785.092 667.563C769.092 649.83 748.959 673.297 758.159 699.03C762.025 709.563 771.492 716.763 779.359 715.03C782.825 714.23 791.225 706.363 791.225 703.83C791.225 702.63 795.225 700.63 796.025 701.43C796.292 701.563 798.025 713.83 799.892 728.63C801.759 743.43 803.625 756.497 804.025 757.563C805.359 761.03 809.092 761.163 831.492 758.363C860.692 754.763 863.225 754.363 863.225 753.03C863.225 752.363 860.825 750.497 857.892 748.897C845.225 741.697 846.425 729.43 860.692 721.697C876.159 713.297 898.959 717.03 903.359 728.763C905.092 733.43 902.692 740.097 897.625 744.363C895.092 746.497 894.025 748.363 894.692 749.03C896.559 750.897 956.559 742.897 958.959 740.63C960.559 738.897 960.292 734.497 957.092 708.497L953.359 678.23L949.225 679.163C947.092 679.563 944.692 680.897 943.892 681.963C934.425 696.897 920.825 696.363 912.692 680.497C900.159 656.23 918.559 628.23 936.425 644.363C940.959 648.497 942.292 649.03 945.492 648.097L949.359 647.03L945.759 619.03C943.759 603.563 942.025 590.897 942.025 590.763C941.892 590.63 940.825 589.83 939.359 589.163C937.625 588.097 929.359 588.763 911.092 591.03C896.825 592.897 884.559 594.363 883.625 594.363C882.559 594.363 882.292 591.963 882.825 586.63C883.359 580.23 882.959 578.363 880.292 574.363C875.359 567.03 865.625 563.297 856.159 565.03Z" fill="black"/>
</svg>
