<svg width="520" height="442" viewBox="0 0 520 442" fill="none" xmlns="http://www.w3.org/2000/svg">
<g clip-path="url(#clip0_146_17)">
<rect width="520" height="442" rx="100" fill="white"/>
<path d="M120.453 0.24353C92.6655 2.39468 68.5342 10.634 47.7342 25.0426C41.3967 29.4261 37.3342 32.8355 30.8749 39.3295C21.4092 48.7864 15.1936 57.4722 9.70924 68.7962C0.568609 87.7506 -1.95014 107.436 1.62486 131.707C4.50923 151.189 10.5624 169.575 20.9624 190.356C44.9717 238.29 85.678 286.549 158.64 353.762C176.922 370.606 207.594 397.394 247.528 431.366L260 442L272.512 431.366C337.065 376.37 367.209 349.338 398.694 318.208C448.825 268.609 479.212 229.889 499.037 190.356C511.428 165.557 517.847 143.721 519.634 120.14C521.991 89.2118 511.672 61.8557 489.125 39.3295C478.319 28.5332 468.325 21.3897 454.391 14.6116C439.278 7.26523 425.181 3.24703 405.641 0.730591C399.506 -0.0405754 377.975 0.0811912 370.216 0.933533C326.462 5.80406 297.822 24.6773 269.994 66.9697C267.678 70.4197 264.55 75.4119 263.006 78.0096C261.462 80.6072 260.122 82.7583 260 82.7583C259.878 82.7583 258.537 80.6072 256.994 78.0096C247.162 61.4498 235.869 46.4729 225.062 35.7172C204.506 15.1798 181.147 4.38349 150.109 1.01471C144.706 0.405894 124.84 -0.0811713 120.453 0.24353Z" fill="black"/>
</g>
<defs>
<clipPath id="clip0_146_17">
<rect width="520" height="442" rx="100" fill="white"/>
</clipPath>
</defs>
</svg>
